# Blender v2.82 (sub 7) OBJ File: 'STIFF_FLOP_suite.blend'
# www.blender.org
mtllib STIFF_FLOP_good.mtl
o Circle.005_Circle.007
v 0.004980 0.000000 -0.002875
v 0.002875 0.000000 -0.004980
v 0.000000 0.000000 -0.005750
v -0.002875 0.000000 -0.004980
v -0.004980 0.000000 -0.002875
v -0.005750 0.000000 -0.000000
v -0.004980 0.000000 0.002875
v -0.002875 0.000000 0.004980
v -0.000000 0.000000 0.005750
v 0.002875 0.000000 0.004980
v 0.004980 0.000000 0.002875
v 0.005750 0.000000 0.000000
v 0.001949 0.000000 -0.001125
v 0.001125 0.000000 -0.001949
v 0.000000 0.000000 -0.002250
v -0.001125 0.000000 -0.001949
v -0.001949 0.000000 -0.001125
v -0.002250 0.000000 -0.000000
v -0.001949 0.000000 0.001125
v -0.001125 0.000000 0.001949
v -0.000000 0.000000 0.002250
v 0.001125 0.000000 0.001949
v 0.001949 0.000000 0.001125
v 0.002250 0.000000 0.000000
v 0.004114 0.000000 -0.002375
v 0.003839 0.000000 -0.002650
v 0.003464 0.000000 -0.002750
v 0.003089 0.000000 -0.002650
v 0.002815 0.000000 -0.002375
v 0.002714 0.000000 -0.002000
v 0.002815 0.000000 -0.001625
v 0.003089 0.000000 -0.001350
v 0.003464 0.000000 -0.001250
v 0.003839 0.000000 -0.001350
v 0.004114 0.000000 -0.001625
v 0.004214 0.000000 -0.002000
v 0.003927 0.000000 -0.003927
v 0.005365 0.000000 -0.001437
v 0.002000 0.000000 -0.003464
v 0.002438 0.000000 -0.004222
v 0.002219 0.000000 -0.003843
v 0.001563 0.000000 -0.002706
v 0.001781 0.000000 -0.003085
v 0.004000 0.000000 0.000000
v 0.004875 0.000000 0.000000
v 0.003125 0.000000 0.000000
v 0.003563 0.000000 0.000000
v 0.004438 0.000000 0.000000
v -0.004980 0.000000 -0.002875
v -0.005750 0.000000 0.000000
v -0.004980 0.000000 0.002875
v -0.002875 0.000000 0.004980
v 0.000000 0.000000 0.005750
v 0.002875 0.000000 0.004980
v 0.004980 0.000000 0.002875
v 0.005750 0.000000 0.000000
v 0.004980 0.000000 -0.002875
v 0.002875 0.000000 -0.004980
v 0.000000 0.000000 -0.005750
v -0.002875 0.000000 -0.004980
v -0.001949 0.000000 -0.001125
v -0.002250 0.000000 0.000000
v -0.001949 0.000000 0.001125
v -0.001125 0.000000 0.001949
v 0.000000 0.000000 0.002250
v 0.001125 0.000000 0.001949
v 0.001949 0.000000 0.001125
v 0.002250 0.000000 0.000000
v 0.001949 0.000000 -0.001125
v 0.001125 0.000000 -0.001949
v 0.000000 0.000000 -0.002250
v -0.001125 0.000000 -0.001949
v -0.004114 0.000000 -0.002375
v -0.004214 0.000000 -0.002000
v -0.004114 0.000000 -0.001625
v -0.003839 0.000000 -0.001350
v -0.003464 0.000000 -0.001250
v -0.003089 0.000000 -0.001350
v -0.002815 0.000000 -0.001625
v -0.002714 0.000000 -0.002000
v -0.002815 0.000000 -0.002375
v -0.003089 0.000000 -0.002650
v -0.003464 0.000000 -0.002750
v -0.003839 0.000000 -0.002650
v -0.005365 0.000000 -0.001437
v -0.003927 0.000000 -0.003927
v -0.004000 0.000000 0.000000
v -0.004875 0.000000 0.000000
v -0.004438 0.000000 0.000000
v -0.003125 0.000000 0.000000
v -0.003562 0.000000 0.000000
v -0.002000 0.000000 -0.003464
v -0.002437 0.000000 -0.004222
v -0.001562 0.000000 -0.002706
v -0.001781 0.000000 -0.003085
v -0.002219 0.000000 -0.003843
v 0.000000 0.000000 -0.005750
v -0.002875 0.000000 -0.004980
v -0.004980 0.000000 -0.002875
v -0.005750 0.000000 0.000000
v -0.004980 0.000000 0.002875
v -0.002875 0.000000 0.004980
v -0.000000 0.000000 0.005750
v 0.002875 0.000000 0.004980
v 0.004980 0.000000 0.002875
v 0.005750 0.000000 0.000000
v 0.004980 0.000000 -0.002875
v 0.002875 0.000000 -0.004980
v 0.000000 0.000000 -0.002250
v -0.001125 0.000000 -0.001949
v -0.001949 0.000000 -0.001125
v -0.002250 0.000000 0.000000
v -0.001949 0.000000 0.001125
v -0.001125 0.000000 0.001949
v -0.000000 0.000000 0.002250
v 0.001125 0.000000 0.001949
v 0.001949 0.000000 0.001125
v 0.002250 0.000000 0.000000
v 0.001949 0.000000 -0.001125
v 0.001125 0.000000 -0.001949
v 0.000000 0.000000 -0.004750
v -0.000375 0.000000 -0.004650
v -0.000650 0.000000 -0.004375
v -0.000750 0.000000 -0.004000
v -0.000650 0.000000 -0.003625
v -0.000375 0.000000 -0.003350
v -0.000000 0.000000 -0.003250
v 0.000375 0.000000 -0.003350
v 0.000650 0.000000 -0.003625
v 0.000750 0.000000 -0.004000
v 0.000650 0.000000 -0.004375
v 0.000375 0.000000 -0.004650
v -0.001438 0.000000 -0.005365
v 0.001438 0.000000 -0.005365
v -0.002000 0.000000 -0.003464
v -0.002438 0.000000 -0.004222
v -0.002219 0.000000 -0.003843
v -0.001563 0.000000 -0.002706
v -0.001781 0.000000 -0.003085
v 0.002000 0.000000 -0.003464
v 0.002438 0.000000 -0.004222
v 0.001563 0.000000 -0.002706
v 0.001781 0.000000 -0.003085
v 0.002219 0.000000 -0.003843
v -0.004980 0.000000 0.002875
v -0.002875 0.000000 0.004980
v 0.000000 0.000000 0.005750
v 0.002875 0.000000 0.004980
v 0.004980 0.000000 0.002875
v 0.005750 0.000000 -0.000000
v 0.004980 0.000000 -0.002875
v 0.002875 0.000000 -0.004980
v 0.000000 0.000000 -0.005750
v -0.002875 0.000000 -0.004980
v -0.004980 0.000000 -0.002875
v -0.005750 0.000000 -0.000000
v -0.001949 0.000000 0.001125
v -0.001125 0.000000 0.001949
v 0.000000 0.000000 0.002250
v 0.001125 0.000000 0.001949
v 0.001949 0.000000 0.001125
v 0.002250 0.000000 -0.000000
v 0.001949 0.000000 -0.001125
v 0.001125 0.000000 -0.001949
v 0.000000 0.000000 -0.002250
v -0.001125 0.000000 -0.001949
v -0.001949 0.000000 -0.001125
v -0.002250 0.000000 -0.000000
v -0.004114 0.000000 0.002375
v -0.003839 0.000000 0.002650
v -0.003464 0.000000 0.002750
v -0.003089 0.000000 0.002650
v -0.002815 0.000000 0.002375
v -0.002714 0.000000 0.002000
v -0.002815 0.000000 0.001625
v -0.003089 0.000000 0.001350
v -0.003464 0.000000 0.001250
v -0.003839 0.000000 0.001350
v -0.004114 0.000000 0.001625
v -0.004214 0.000000 0.002000
v -0.003927 0.000000 0.003927
v -0.005365 0.000000 0.001437
v -0.002000 0.000000 0.003464
v -0.002437 0.000000 0.004222
v -0.002219 0.000000 0.003843
v -0.001562 0.000000 0.002706
v -0.001781 0.000000 0.003085
v -0.004000 0.000000 -0.000000
v -0.004875 0.000000 -0.000000
v -0.003125 0.000000 -0.000000
v -0.003563 0.000000 -0.000000
v -0.004438 0.000000 -0.000000
v 0.000000 0.000000 0.005750
v 0.002875 0.000000 0.004980
v 0.004980 0.000000 0.002875
v 0.005750 0.000000 -0.000000
v 0.004980 0.000000 -0.002875
v 0.002875 0.000000 -0.004980
v 0.000000 0.000000 -0.005750
v -0.002875 0.000000 -0.004980
v -0.004980 0.000000 -0.002875
v -0.005750 0.000000 -0.000000
v -0.004980 0.000000 0.002875
v -0.002875 0.000000 0.004980
v 0.000000 0.000000 0.002250
v 0.001125 0.000000 0.001949
v 0.001949 0.000000 0.001125
v 0.002250 0.000000 -0.000000
v 0.001949 0.000000 -0.001125
v 0.001125 0.000000 -0.001949
v 0.000000 0.000000 -0.002250
v -0.001125 0.000000 -0.001949
v -0.001949 0.000000 -0.001125
v -0.002250 0.000000 -0.000000
v -0.001949 0.000000 0.001125
v -0.001125 0.000000 0.001949
v 0.000000 0.000000 0.004750
v 0.000375 0.000000 0.004650
v 0.000650 0.000000 0.004375
v 0.000750 0.000000 0.004000
v 0.000650 0.000000 0.003625
v 0.000375 0.000000 0.003350
v 0.000000 0.000000 0.003250
v -0.000375 0.000000 0.003350
v -0.000650 0.000000 0.003625
v -0.000750 0.000000 0.004000
v -0.000650 0.000000 0.004375
v -0.000375 0.000000 0.004650
v 0.001438 0.000000 0.005365
v -0.001438 0.000000 0.005365
v 0.002000 0.000000 0.003464
v 0.002438 0.000000 0.004222
v 0.002219 0.000000 0.003843
v 0.001563 0.000000 0.002706
v 0.001781 0.000000 0.003085
v -0.002000 0.000000 0.003464
v -0.002438 0.000000 0.004222
v -0.001563 0.000000 0.002706
v -0.001781 0.000000 0.003085
v -0.002219 0.000000 0.003843
v 0.004980 0.000000 0.002875
v 0.005750 0.000000 -0.000000
v 0.004980 0.000000 -0.002875
v 0.002875 0.000000 -0.004980
v -0.000000 0.000000 -0.005750
v -0.002875 0.000000 -0.004980
v -0.004980 0.000000 -0.002875
v -0.005750 0.000000 -0.000000
v -0.004980 0.000000 0.002875
v -0.002875 0.000000 0.004980
v -0.000000 0.000000 0.005750
v 0.002875 0.000000 0.004980
v 0.001949 0.000000 0.001125
v 0.002250 0.000000 -0.000000
v 0.001949 0.000000 -0.001125
v 0.001125 0.000000 -0.001949
v -0.000000 0.000000 -0.002250
v -0.001125 0.000000 -0.001949
v -0.001949 0.000000 -0.001125
v -0.002250 0.000000 -0.000000
v -0.001949 0.000000 0.001125
v -0.001125 0.000000 0.001949
v -0.000000 0.000000 0.002250
v 0.001125 0.000000 0.001949
v 0.004114 0.000000 0.002375
v 0.004214 0.000000 0.002000
v 0.004114 0.000000 0.001625
v 0.003839 0.000000 0.001350
v 0.003464 0.000000 0.001250
v 0.003089 0.000000 0.001350
v 0.002815 0.000000 0.001625
v 0.002714 0.000000 0.002000
v 0.002815 0.000000 0.002375
v 0.003089 0.000000 0.002650
v 0.003464 0.000000 0.002750
v 0.003839 0.000000 0.002650
v 0.005365 0.000000 0.001437
v 0.003927 0.000000 0.003927
v 0.004000 0.000000 -0.000000
v 0.004875 0.000000 -0.000000
v 0.004438 0.000000 -0.000000
v 0.003125 0.000000 -0.000000
v 0.003562 0.000000 -0.000000
v 0.002000 0.000000 0.003464
v 0.002437 0.000000 0.004222
v 0.001562 0.000000 0.002706
v 0.001781 0.000000 0.003085
v 0.002219 0.000000 0.003843
vn 0.0000 -1.0000 0.0000
usemtl None
s off
f 14//1 30//1 31//1 13//1
f 13//1 31//1 32//1 24//1
f 1//1 25//1 26//1 37//1
f 36//1 25//1 1//1 38//1
f 26//1 27//1 2//1 37//1
f 12//1 35//1 36//1 38//1
f 30//1 14//1 43//1 29//1
f 29//1 43//1 41//1 28//1
f 28//1 41//1 2//1 27//1
f 33//1 34//1 281//1 283//1
f 34//1 35//1 242//1 281//1
f 32//1 33//1 283//1 254//1
f 62//1 78//1 79//1 61//1
f 61//1 79//1 80//1 72//1
f 49//1 73//1 74//1 85//1
f 84//1 73//1 49//1 86//1
f 74//1 75//1 50//1 85//1
f 60//1 83//1 84//1 86//1
f 78//1 62//1 91//1 77//1
f 77//1 91//1 89//1 76//1
f 76//1 89//1 50//1 75//1
f 81//1 82//1 137//1 139//1
f 82//1 83//1 246//1 137//1
f 81//1 139//1 258//1 80//1
f 110//1 126//1 127//1 109//1
f 109//1 127//1 128//1 120//1
f 97//1 121//1 122//1 133//1
f 132//1 121//1 97//1 134//1
f 122//1 123//1 98//1 133//1
f 108//1 131//1 132//1 134//1
f 126//1 110//1 139//1 125//1
f 125//1 139//1 137//1 124//1
f 124//1 137//1 98//1 123//1
f 129//1 130//1 144//1 143//1
f 130//1 131//1 244//1 144//1
f 143//1 256//1 128//1 129//1
f 158//1 174//1 175//1 157//1
f 157//1 175//1 176//1 168//1
f 145//1 169//1 170//1 181//1
f 180//1 169//1 145//1 182//1
f 170//1 171//1 146//1 181//1
f 156//1 179//1 180//1 182//1
f 174//1 158//1 187//1 173//1
f 173//1 187//1 185//1 172//1
f 172//1 185//1 146//1 171//1
f 192//1 178//1 179//1 248//1
f 178//1 192//1 191//1 177//1
f 177//1 191//1 260//1 176//1
f 206//1 222//1 223//1 205//1
f 205//1 223//1 224//1 216//1
f 193//1 217//1 218//1 229//1
f 228//1 217//1 193//1 230//1
f 218//1 219//1 194//1 229//1
f 204//1 227//1 228//1 230//1
f 222//1 206//1 235//1 221//1
f 221//1 235//1 233//1 220//1
f 220//1 233//1 194//1 219//1
f 240//1 226//1 227//1 250//1
f 226//1 240//1 239//1 225//1
f 225//1 239//1 262//1 224//1
f 254//1 270//1 271//1 253//1
f 253//1 271//1 272//1 264//1
f 241//1 265//1 266//1 277//1
f 276//1 265//1 241//1 278//1
f 266//1 267//1 242//1 277//1
f 252//1 275//1 276//1 278//1
f 270//1 254//1 283//1 269//1
f 269//1 283//1 281//1 268//1
f 268//1 281//1 242//1 267//1
f 272//1 273//1 287//1 264//1
f 273//1 274//1 288//1 287//1
f 274//1 275//1 252//1 288//1
l 3 2
l 4 3
l 5 4
l 6 5
l 7 6
l 8 7
l 9 8
l 10 9
l 11 10
l 12 11
l 15 14
l 16 15
l 17 16
l 18 17
l 19 18
l 20 19
l 21 20
l 22 21
l 23 22
l 24 23
l 42 14
l 41 39
l 2 40
l 40 41
l 43 42
l 39 43
l 46 24
l 48 44
l 12 45
l 47 46
l 44 47
l 45 48
l 44 46
l 12 44
l 51 50
l 52 51
l 53 52
l 54 53
l 55 54
l 56 55
l 57 56
l 58 57
l 59 58
l 60 59
l 63 62
l 64 63
l 65 64
l 66 65
l 67 66
l 68 67
l 69 68
l 70 69
l 71 70
l 72 71
l 90 62
l 89 87
l 50 88
l 88 89
l 91 90
l 87 91
l 94 72
l 96 92
l 60 93
l 95 94
l 92 95
l 93 96
l 92 94
l 60 92
l 99 98
l 100 99
l 101 100
l 102 101
l 103 102
l 104 103
l 105 104
l 106 105
l 107 106
l 108 107
l 111 110
l 112 111
l 113 112
l 114 113
l 115 114
l 116 115
l 117 116
l 118 117
l 119 118
l 120 119
l 138 110
l 137 135
l 98 136
l 136 137
l 139 138
l 135 139
l 142 120
l 144 140
l 108 141
l 143 142
l 140 143
l 141 144
l 140 142
l 108 140
l 147 146
l 148 147
l 149 148
l 150 149
l 151 150
l 152 151
l 153 152
l 154 153
l 155 154
l 156 155
l 159 158
l 160 159
l 161 160
l 162 161
l 163 162
l 164 163
l 165 164
l 166 165
l 167 166
l 168 167
l 186 158
l 185 183
l 146 184
l 184 185
l 187 186
l 183 187
l 190 168
l 192 188
l 156 189
l 191 190
l 188 191
l 189 192
l 188 190
l 156 188
l 195 194
l 196 195
l 197 196
l 198 197
l 199 198
l 200 199
l 201 200
l 202 201
l 203 202
l 204 203
l 207 206
l 208 207
l 209 208
l 210 209
l 211 210
l 212 211
l 213 212
l 214 213
l 215 214
l 216 215
l 234 206
l 233 231
l 194 232
l 232 233
l 235 234
l 231 235
l 238 216
l 240 236
l 204 237
l 239 238
l 236 239
l 237 240
l 236 238
l 204 236
l 243 242
l 244 243
l 245 244
l 246 245
l 247 246
l 248 247
l 249 248
l 250 249
l 251 250
l 252 251
l 255 254
l 256 255
l 257 256
l 258 257
l 259 258
l 260 259
l 261 260
l 262 261
l 263 262
l 264 263
l 282 254
l 281 279
l 242 280
l 280 281
l 283 282
l 279 283
l 286 264
l 288 284
l 252 285
l 287 286
l 284 287
l 285 288
l 284 286
l 252 284
