solid Created by Gmsh
facet normal -0.728966 -0.68455 -0
  outer loop
    vertex 3.40528011321975 -2.881680011749234 57
    vertex 3.40528011321975 -2.881680011749234 1
    vertex 3.662669897078933 -3.155770063400063 1
  endloop
endfacet
facet normal -0.728966 -0.68455 5.42859e-18
  outer loop
    vertex 3.662669897079282 -3.155770063399735 57
    vertex 3.405280113220099 -2.881680011748906 57
    vertex 3.662669897079282 -3.155770063399735 1
  endloop
endfacet
facet normal -1 0 0
  outer loop
    vertex 3.130630016327 -2.18799996376 1
    vertex 3.130630016327 -1.81200003624 57
    vertex 3.130630016327 -1.81200003624 1
  endloop
endfacet
facet normal -1 0 0
  outer loop
    vertex 3.130630016327 -2.18799996376 1
    vertex 3.130630016327 -2.18799996376 57
    vertex 3.130630016327 -1.81200003624 57
  endloop
endfacet
facet normal -0.876305 0.481757 0
  outer loop
    vertex 3.405280113219944 -1.118319988250969 57
    vertex 3.405280113219944 -1.118319988250969 1
    vertex 3.224139928817808 -1.447810053824895 1
  endloop
endfacet
facet normal -0.876305 0.481757 0
  outer loop
    vertex 3.224139928818056 -1.447810053825031 57
    vertex 3.405280113220192 -1.118319988251106 57
    vertex 3.224139928818056 -1.447810053825031 1
  endloop
endfacet
facet normal 0.187393 -0.982285 0
  outer loop
    vertex 4.712989807129144 -3.497040033340753 1
    vertex 5.082330226898065 -3.426579952240344 57
    vertex 4.712989807129144 -3.497040033340753 57
  endloop
endfacet
facet normal 0.187393 -0.982285 0
  outer loop
    vertex 4.712989807129119 -3.497040033340621 1
    vertex 5.08233022689804 -3.426579952240211 1
    vertex 5.08233022689804 -3.426579952240211 57
  endloop
endfacet
facet normal 0.425778 -0.904828 0
  outer loop
    vertex 5.082330226898033 -3.426579952240072 1
    vertex 5.422540187835926 -3.266489982604845 57
    vertex 5.082330226898033 -3.426579952240072 57
  endloop
endfacet
facet normal 0.425778 -0.904828 0
  outer loop
    vertex 5.082330226898073 -3.426579952240156 1
    vertex 5.422540187835966 -3.266489982604929 1
    vertex 5.422540187835966 -3.266489982604929 57
  endloop
endfacet
facet normal 0 0 1
  outer loop
    vertex 5.082330226898 -0.573414981365 57
    vertex 5.082330226898107 -3.426579952240227 57
    vertex 5.422540187835637 -3.266489982605046 57
  endloop
endfacet
facet normal 0.992117 0.125318 0
  outer loop
    vertex 6.071680068970185 -1.626960039138977 57
    vertex 6.118800163269469 -1.999999999999941 57
    vertex 6.071680068970185 -1.626960039138977 1
  endloop
endfacet
facet normal 0.992117 0.125318 0
  outer loop
    vertex 6.11880016326894 -2.000000000000008 57
    vertex 6.11880016326894 -2.000000000000008 1
    vertex 6.071680068969656 -1.626960039139044 1
  endloop
endfacet
facet normal 0.992116 -0.125321 0
  outer loop
    vertex 6.118800163268945 -1.999999999999993 57
    vertex 6.071680068969676 -2.373029947280959 57
    vertex 6.118800163268945 -1.999999999999993 1
  endloop
endfacet
facet normal 0.992116 -0.125321 0
  outer loop
    vertex 6.071680068969931 -2.373029947280991 57
    vertex 6.071680068969931 -2.373029947280991 1
    vertex 6.118800163269201 -2.000000000000025 1
  endloop
endfacet
facet normal 0.929773 -0.368133 0
  outer loop
    vertex 6.071680068970005 -2.373029947281002 57
    vertex 5.933259963989499 -2.722630023956197 57
    vertex 6.071680068970005 -2.373029947281002 1
  endloop
endfacet
facet normal 0.929773 -0.368133 0
  outer loop
    vertex 5.933259963988994 -2.722630023955998 57
    vertex 5.933259963988994 -2.722630023955998 1
    vertex 6.071680068969501 -2.373029947280803 1
  endloop
endfacet
facet normal 0 0 1
  outer loop
    vertex 6.07168006897 -1.626960039139 57
    vertex 6.07168006896973 -2.373029947280966 57
    vertex 6.118800163269285 -1.999999999999964 57
  endloop
endfacet
facet normal 0 0 1
  outer loop
    vertex 5.93325996398946 -1.277369976043818 57
    vertex 6.07168006897 -2.373029947281 57
    vertex 6.07168006897 -1.626960039139 57
  endloop
endfacet
facet normal 0 0 1
  outer loop
    vertex 5.933259963989 -1.277369976044 57
    vertex 5.933259963989493 -2.722630023956195 57
    vertex 6.071680068969064 -2.373029947281118 57
  endloop
endfacet
facet normal 0 0 1
  outer loop
    vertex 5.712250232696612 -0.9731789827352821 57
    vertex 5.933259963989 -2.722630023956 57
    vertex 5.933259963989 -1.277369976044 57
  endloop
endfacet
facet normal 0 0 1
  outer loop
    vertex 5.712250232697 -0.9731789827349999 57
    vertex 5.712250232697 -3.026819944382 57
    vertex 5.933259963990442 -2.722630023955818 57
  endloop
endfacet
facet normal 0 0 1
  outer loop
    vertex 5.712250232697 -0.9731789827349999 57
    vertex 5.422540187835742 -0.7335079908373121 57
    vertex 5.712250232697 -3.026819944382 57
  endloop
endfacet
facet normal 0 0 1
  outer loop
    vertex 5.422540187836 -0.7335079908369999 57
    vertex 5.422540187836 -3.266489982605 57
    vertex 5.712250232697299 -3.026819944381963 57
  endloop
endfacet
facet normal 0 0 1
  outer loop
    vertex 5.422540187835952 -0.7335079908371021 57
    vertex 5.082330226898 -0.573414981365 57
    vertex 5.422540187836 -3.266489982605 57
  endloop
endfacet
facet normal 0.425784 0.904825 -0
  outer loop
    vertex 5.422540187836145 -0.7335079908366913 1
    vertex 5.082330226898192 -0.5734149813645893 57
    vertex 5.422540187836145 -0.7335079908366913 57
  endloop
endfacet
facet normal 0.425784 0.904825 0
  outer loop
    vertex 5.422540187835807 -0.7335079908374107 1
    vertex 5.082330226897855 -0.5734149813653088 1
    vertex 5.082330226897855 -0.5734149813653088 57
  endloop
endfacet
facet normal 0 0 1
  outer loop
    vertex 5.082330226898 -0.573414981365 57
    vertex 4.712989807128967 -0.5029590129851744 57
    vertex 5.082330226898 -3.42657995224 57
  endloop
endfacet
facet normal 0 0 1
  outer loop
    vertex 4.712989807129 -0.5029590129850001 57
    vertex 4.712989807129079 -3.49704003334041 57
    vertex 5.082330226897681 -3.426579952240041 57
  endloop
endfacet
facet normal 0 0 1
  outer loop
    vertex 4.712989807129 -0.5029590129850001 57
    vertex 4.337729930878001 -0.5265679955480118 57
    vertex 4.712989807129 -3.49704003334 57
  endloop
endfacet
facet normal 0 0 1
  outer loop
    vertex 4.337729930878 -0.526567995548 57
    vertex 4.337729930878 -3.473429918289 57
    vertex 4.712989807130168 -3.497040033339853 57
  endloop
endfacet
facet normal 0 0 1
  outer loop
    vertex 4.337729930878 -0.526567995548 57
    vertex 3.980129957198911 -0.6427590250967272 57
    vertex 4.337729930878 -3.473429918289 57
  endloop
endfacet
facet normal 0 0 1
  outer loop
    vertex 3.980129957199 -0.6427590250969999 57
    vertex 3.980129957199 -3.357239961624 57
    vertex 4.33772993087724 -3.473429918289097 57
  endloop
endfacet
facet normal 0 0 1
  outer loop
    vertex 3.980129957199 -0.6427590250969999 57
    vertex 3.662669897079323 -0.8442299962045077 57
    vertex 3.980129957199 -3.357239961624 57
  endloop
endfacet
facet normal 0 0 1
  outer loop
    vertex 3.662669897079 -0.8442299962040001 57
    vertex 3.662669897079 -3.1557700634 57
    vertex 3.980129957198648 -3.357239961624045 57
  endloop
endfacet
facet normal 0 0 1
  outer loop
    vertex 3.662669897079 -0.8442299962039999 57
    vertex 3.405280113219508 -1.118319988250538 57
    vertex 3.662669897079 -3.155770063399999 57
  endloop
endfacet
facet normal 0 0 1
  outer loop
    vertex 3.40528011322 -1.118319988251 57
    vertex 3.40528011322 -2.881680011749 57
    vertex 3.662669897078812 -3.155770063400023 57
  endloop
endfacet
facet normal 0 -0 1
  outer loop
    vertex 3.40528011322 -2.881680011749 57
    vertex 3.40528011322 -1.118319988251 57
    vertex 3.224139928817864 -1.447810053824925 57
  endloop
endfacet
facet normal 0 0 1
  outer loop
    vertex 3.405280113220646 -2.881680011748919 57
    vertex 3.224139928818 -1.447810053825 57
    vertex 3.224139928818 -2.552190065384 57
  endloop
endfacet
facet normal 0 -0 1
  outer loop
    vertex 3.224139928818 -2.552190065384 57
    vertex 3.224139928818 -1.447810053825 57
    vertex 3.130630016326961 -1.81200003623999 57
  endloop
endfacet
facet normal 0 0 1
  outer loop
    vertex 3.224139928818 -2.552190065384 57
    vertex 3.130630016327 -1.81200003624 57
    vertex 3.130630016327084 -2.187999963759979 57
  endloop
endfacet
facet normal -0.968582 -0.248694 -1.97219e-18
  outer loop
    vertex 3.130630016326756 -2.187999963760063 57
    vertex 3.130630016326756 -2.187999963760062 1
    vertex 3.224139928817671 -2.552190065384084 1
  endloop
endfacet
facet normal -0.968582 -0.248694 -0
  outer loop
    vertex 3.224139928818244 -2.552190065383937 57
    vertex 3.130630016327328 -2.187999963759916 57
    vertex 3.224139928818244 -2.552190065383937 1
  endloop
endfacet
facet normal 0.92977 0.368142 -1.1827e-17
  outer loop
    vertex 5.933259963989385 -1.277369976043848 57
    vertex 6.071680068969925 -1.62696003913903 57
    vertex 5.933259963989384 -1.277369976043848 1
  endloop
endfacet
facet normal 0.92977 0.368142 0
  outer loop
    vertex 6.071680068969957 -1.626960039139017 57
    vertex 6.071680068969957 -1.626960039139017 1
    vertex 5.933259963989418 -1.277369976043835 1
  endloop
endfacet
facet normal 0.187383 0.982287 -0
  outer loop
    vertex 5.082330226897892 -0.573414981365564 1
    vertex 4.71298980712886 -0.5029590129857388 57
    vertex 5.082330226897892 -0.573414981365564 57
  endloop
endfacet
facet normal 0.187383 0.982287 0
  outer loop
    vertex 5.082330226897956 -0.5734149813652262 1
    vertex 4.712989807128924 -0.5029590129854009 1
    vertex 4.712989807128924 -0.5029590129854009 57
  endloop
endfacet
facet normal -0.309014 -0.951058 0
  outer loop
    vertex 3.980129957199006 -3.357239961623983 1
    vertex 4.33772993087794 -3.473429918289184 57
    vertex 3.980129957199006 -3.357239961623983 57
  endloop
endfacet
facet normal -0.309014 -0.951058 0
  outer loop
    vertex 3.98012995719906 -3.357239961623816 1
    vertex 4.337729930877995 -3.473429918289018 1
    vertex 4.337729930877995 -3.473429918289018 57
  endloop
endfacet
facet normal -0.0627895 0.998027 0
  outer loop
    vertex 4.712989807129035 -0.5029590129855451 1
    vertex 4.337729930878035 -0.5265679955485572 57
    vertex 4.712989807129035 -0.5029590129855451 57
  endloop
endfacet
facet normal -0.0627895 0.998027 0
  outer loop
    vertex 4.712989807129028 -0.5029590129854389 1
    vertex 4.337729930878028 -0.5265679955484508 1
    vertex 4.337729930878028 -0.5265679955484508 57
  endloop
endfacet
facet normal -0.535834 -0.844324 0
  outer loop
    vertex 3.662669897079012 -3.155770063399981 1
    vertex 3.980129957199042 -3.357239961623934 57
    vertex 3.662669897079012 -3.155770063399981 57
  endloop
endfacet
facet normal -0.535834 -0.844324 0
  outer loop
    vertex 3.662669897078793 -3.155770063400326 1
    vertex 3.980129957198822 -3.35723996162428 1
    vertex 3.980129957198822 -3.35723996162428 57
  endloop
endfacet
facet normal -0.0627925 -0.998027 0
  outer loop
    vertex 4.337729930877981 -3.473429918289299 1
    vertex 4.712989807128966 -3.49704003334055 57
    vertex 4.337729930877981 -3.473429918289299 57
  endloop
endfacet
facet normal -0.0627925 -0.998027 0
  outer loop
    vertex 4.337729930877968 -3.47342991828951 1
    vertex 4.712989807128952 -3.49704003334076 1
    vertex 4.712989807128952 -3.49704003334076 57
  endloop
endfacet
facet normal -0.535836 0.844322 0
  outer loop
    vertex 3.980129957198971 -0.6427590250969555 1
    vertex 3.662669897079294 -0.8442299962044633 57
    vertex 3.980129957198971 -0.6427590250969555 57
  endloop
endfacet
facet normal -0.535836 0.844322 0
  outer loop
    vertex 3.980129957198993 -0.6427590250969891 1
    vertex 3.662669897079315 -0.844229996204497 1
    vertex 3.662669897079315 -0.844229996204497 57
  endloop
endfacet
facet normal 0.809014 0.587789 2.33063e-18
  outer loop
    vertex 5.712250232696443 -0.9731789827354045 57
    vertex 5.933259963988832 -1.277369976044122 57
    vertex 5.712250232696443 -0.9731789827354043 1
  endloop
endfacet
facet normal 0.809014 0.587789 0
  outer loop
    vertex 5.933259963988902 -1.277369976044072 57
    vertex 5.933259963988902 -1.277369976044072 1
    vertex 5.712250232696514 -0.9731789827353537 1
  endloop
endfacet
facet normal -0.728966 0.68455 0
  outer loop
    vertex 3.662669897079682 -0.8442299962046403 57
    vertex 3.662669897079682 -0.8442299962046403 1
    vertex 3.40528011322019 -1.118319988251179 1
  endloop
endfacet
facet normal -0.728966 0.68455 2.7143e-18
  outer loop
    vertex 3.405280113219849 -1.118319988250859 57
    vertex 3.662669897079341 -0.8442299962043204 57
    vertex 3.405280113219849 -1.118319988250859 1
  endloop
endfacet
facet normal -0.309016 0.951057 1.88551e-18
  outer loop
    vertex 4.337729930878163 -0.5265679955485036 1
    vertex 3.980129957199074 -0.642759025097231 57
    vertex 4.337729930878163 -0.5265679955485038 57
  endloop
endfacet
facet normal -0.309016 0.951057 0
  outer loop
    vertex 4.337729930878218 -0.5265679955486737 1
    vertex 3.98012995719913 -0.6427590250974009 1
    vertex 3.98012995719913 -0.6427590250974009 57
  endloop
endfacet
facet normal 0.637427 0.770511 -1.52757e-18
  outer loop
    vertex 5.712250232696992 -0.9731789827350094 1
    vertex 5.422540187835734 -0.7335079908373211 57
    vertex 5.712250232696992 -0.9731789827350092 57
  endloop
endfacet
facet normal 0.637427 0.770511 0
  outer loop
    vertex 5.71225023269686 -0.9731789827351702 1
    vertex 5.422540187835601 -0.7335079908374817 1
    vertex 5.422540187835601 -0.7335079908374817 57
  endloop
endfacet
facet normal -0.876305 -0.481757 -6.94924e-18
  outer loop
    vertex 3.224139928818181 -2.5521900653839 57
    vertex 3.224139928818181 -2.5521900653839 1
    vertex 3.405280113220329 -2.881680011748819 1
  endloop
endfacet
facet normal -0.876305 -0.481757 -0
  outer loop
    vertex 3.405280113219819 -2.881680011749099 57
    vertex 3.224139928817671 -2.552190065384181 57
    vertex 3.405280113219819 -2.881680011749099 1
  endloop
endfacet
facet normal -0.968582 0.248694 0
  outer loop
    vertex 3.224139928818221 -1.447810053825057 57
    vertex 3.224139928818221 -1.447810053825057 1
    vertex 3.130630016327181 -1.812000036240047 1
  endloop
endfacet
facet normal -0.968582 0.248694 7.68101e-18
  outer loop
    vertex 3.13063001632678 -1.812000036239943 57
    vertex 3.224139928817819 -1.447810053824953 57
    vertex 3.13063001632678 -1.812000036239943 1
  endloop
endfacet
facet normal 0.809013 -0.58779 4.66127e-18
  outer loop
    vertex 5.933259963989263 -2.72263002395619 57
    vertex 5.712250232696686 -3.026819944381771 57
    vertex 5.933259963989263 -2.722630023956191 1
  endloop
endfacet
facet normal 0.809013 -0.58779 0
  outer loop
    vertex 5.712250232696737 -3.026819944381808 57
    vertex 5.712250232696737 -3.026819944381808 1
    vertex 5.933259963989315 -2.722630023956228 1
  endloop
endfacet
facet normal 0.637426 -0.770512 0
  outer loop
    vertex 5.422540187836064 -3.266489982605077 1
    vertex 5.712250232696927 -3.02681994438191 57
    vertex 5.422540187836064 -3.266489982605077 57
  endloop
endfacet
facet normal 0.637426 -0.770512 0
  outer loop
    vertex 5.422540187835668 -3.266489982604598 1
    vertex 5.712250232696531 -3.026819944381432 1
    vertex 5.712250232696531 -3.026819944381432 57
  endloop
endfacet
facet normal 0 0 -1
  outer loop
    vertex 6.07168006897 -2.373029947281 1
    vertex 6.071680068969716 -1.626960039139036 1
    vertex 6.11880016326927 -2.000000000000034 1
  endloop
endfacet
facet normal 0 0 -1
  outer loop
    vertex 5.933259963989 -2.722630023956 1
    vertex 6.07168006897 -1.626960039139 1
    vertex 6.071680068969507 -2.373029947280805 1
  endloop
endfacet
facet normal 0 0 -1
  outer loop
    vertex 5.933259963989 -2.722630023956 1
    vertex 5.93325996398946 -1.277369976043818 1
    vertex 6.071680068969491 -1.626960039138936 1
  endloop
endfacet
facet normal 0 -0 -1
  outer loop
    vertex 5.933259963989 -1.277369976044 1
    vertex 5.933259963989578 -2.722630023956419 1
    vertex 5.712250232697 -3.026819944382 1
  endloop
endfacet
facet normal 0 0 -1
  outer loop
    vertex 5.712250232696612 -0.9731789827352824 1
    vertex 5.933259963989752 -1.277369976044095 1
    vertex 5.712250232697 -3.026819944382 1
  endloop
endfacet
facet normal 0 0 -1
  outer loop
    vertex 5.712250232697 -0.9731789827349999 1
    vertex 5.712250232696863 -3.026819944381833 1
    vertex 5.422540187836 -3.266489982605 1
  endloop
endfacet
facet normal 0 0 -1
  outer loop
    vertex 5.422540187835742 -0.7335079908373121 1
    vertex 5.712250232697947 -0.9731789827351194 1
    vertex 5.422540187836 -3.266489982605 1
  endloop
endfacet
facet normal 0 0 -1
  outer loop
    vertex 5.422540187836 -0.7335079908369999 1
    vertex 5.422540187835892 -3.266489982604773 1
    vertex 5.082330226898 -3.42657995224 1
  endloop
endfacet
facet normal 0 -0 -1
  outer loop
    vertex 5.082330226898048 -0.5734149813648983 1
    vertex 5.422540187834861 -0.733507990836856 1
    vertex 5.082330226898 -3.42657995224 1
  endloop
endfacet
facet normal 0 0 -1
  outer loop
    vertex 5.082330226898 -0.573414981365 1
    vertex 5.082330226897922 -3.426579952239591 1
    vertex 4.712989807129 -3.49704003334 1
  endloop
endfacet
facet normal 0 0 -1
  outer loop
    vertex 4.712989807128967 -0.5029590129851749 1
    vertex 5.08233022689943 -0.5734149813651808 1
    vertex 4.712989807129 -3.49704003334 1
  endloop
endfacet
facet normal 0 0 -1
  outer loop
    vertex 4.712989807129 -0.5029590129849997 1
    vertex 4.712989807128984 -3.49704003334025 1
    vertex 4.337729930878 -3.473429918289 1
  endloop
endfacet
facet normal 0 -0 -1
  outer loop
    vertex 4.337729930878001 -0.526567995548012 1
    vertex 4.712989807128043 -0.5029590129848787 1
    vertex 4.337729930878 -3.473429918289 1
  endloop
endfacet
facet normal 0 0 -1
  outer loop
    vertex 4.337729930878 -0.526567995548 1
    vertex 4.337729930877934 -3.473429918289201 1
    vertex 3.980129957199 -3.357239961624 1
  endloop
endfacet
facet normal 0 0 -1
  outer loop
    vertex 3.980129957198911 -0.6427590250967272 1
    vertex 4.337729930877495 -0.5265679955479357 1
    vertex 3.980129957199 -3.357239961624 1
  endloop
endfacet
facet normal 0 -0 -1
  outer loop
    vertex 3.980129957199 -0.6427590250970001 1
    vertex 3.98012995719903 -3.357239961623953 1
    vertex 3.662669897079 -3.1557700634 1
  endloop
endfacet
facet normal 0 -0 -1
  outer loop
    vertex 3.662669897079323 -0.8442299962045077 1
    vertex 3.98012995719884 -0.6427590250969799 1
    vertex 3.662669897079 -3.1557700634 1
  endloop
endfacet
facet normal 0 -0 -1
  outer loop
    vertex 3.662669897079 -0.8442299962040001 1
    vertex 3.662669897079183 -3.155770063399828 1
    vertex 3.40528011322 -2.881680011749 1
  endloop
endfacet
facet normal 0 0 -1
  outer loop
    vertex 3.662669897078976 -0.8442299962039965 1
    vertex 3.40528011322 -2.881680011749 1
    vertex 3.405280113219508 -1.118319988250538 1
  endloop
endfacet
facet normal 0 -0 -1
  outer loop
    vertex 3.40528011322 -1.118319988251 1
    vertex 3.405280113220148 -2.881680011748919 1
    vertex 3.224139928818 -2.552190065384 1
  endloop
endfacet
facet normal 0 0 -1
  outer loop
    vertex 3.405280113221166 -1.118319988251147 1
    vertex 3.224139928818 -2.552190065384 1
    vertex 3.224139928817864 -1.447810053824925 1
  endloop
endfacet
facet normal 0 0 -1
  outer loop
    vertex 3.224139928818 -1.447810053825 1
    vertex 3.224139928817916 -2.552190065384021 1
    vertex 3.130630016327 -2.18799996376 1
  endloop
endfacet
facet normal 0 0 -1
  outer loop
    vertex 3.224139928818 -1.447810053825 1
    vertex 3.130630016327 -2.18799996376 1
    vertex 3.130630016326961 -1.81200003623999 1
  endloop
endfacet
facet normal -0.728966 0.68455 0
  outer loop
    vertex 3.662669897079282 3.155770063399735 57
    vertex 3.662669897079282 3.155770063399735 1
    vertex 3.405280113220099 2.881680011748907 1
  endloop
endfacet
facet normal -0.728966 0.68455 0
  outer loop
    vertex 3.40528011321975 2.881680011749234 57
    vertex 3.662669897078933 3.155770063400063 57
    vertex 3.40528011321975 2.881680011749234 1
  endloop
endfacet
facet normal -0.876305 -0.481757 -0
  outer loop
    vertex 3.224139928818056 1.447810053825031 57
    vertex 3.224139928818056 1.447810053825031 1
    vertex 3.405280113220192 1.118319988251105 1
  endloop
endfacet
facet normal -0.876305 -0.481757 -0
  outer loop
    vertex 3.405280113219944 1.118319988250969 57
    vertex 3.224139928817808 1.447810053824895 57
    vertex 3.405280113219944 1.118319988250969 1
  endloop
endfacet
facet normal 0 0 1
  outer loop
    vertex 3.405280113221166 1.118319988251147 57
    vertex 3.224139928818 2.552190065384 57
    vertex 3.224139928817864 1.447810053824925 57
  endloop
endfacet
facet normal -0.309016 -0.951057 0
  outer loop
    vertex 3.98012995719913 0.6427590250974009 1
    vertex 4.337729930878218 0.5265679955486737 57
    vertex 3.98012995719913 0.6427590250974009 57
  endloop
endfacet
facet normal -0.309016 -0.951057 0
  outer loop
    vertex 3.980129957199075 0.6427590250972309 1
    vertex 4.337729930878163 0.5265679955485036 1
    vertex 4.337729930878163 0.5265679955485036 57
  endloop
endfacet
facet normal 0 0 1
  outer loop
    vertex 3.980129957199 3.357239961624 57
    vertex 3.980129957198911 0.6427590250967272 57
    vertex 4.337729930877495 0.5265679955479357 57
  endloop
endfacet
facet normal 0.425784 -0.904825 0
  outer loop
    vertex 5.082330226897855 0.5734149813653088 1
    vertex 5.422540187835807 0.7335079908374107 57
    vertex 5.082330226897855 0.5734149813653088 57
  endloop
endfacet
facet normal 0.425784 -0.904825 0
  outer loop
    vertex 5.082330226898192 0.5734149813645893 1
    vertex 5.422540187836145 0.7335079908366913 1
    vertex 5.422540187836145 0.7335079908366913 57
  endloop
endfacet
facet normal 0 0 1
  outer loop
    vertex 5.082330226898 3.42657995224 57
    vertex 5.082330226898048 0.5734149813648981 57
    vertex 5.422540187834861 0.733507990836856 57
  endloop
endfacet
facet normal 0.92977 -0.368142 0
  outer loop
    vertex 6.071680068969957 1.626960039139017 57
    vertex 5.933259963989418 1.277369976043835 57
    vertex 6.071680068969957 1.626960039139017 1
  endloop
endfacet
facet normal 0.92977 -0.368142 0
  outer loop
    vertex 5.933259963989384 1.277369976043848 57
    vertex 5.933259963989384 1.277369976043848 1
    vertex 6.071680068969925 1.62696003913903 1
  endloop
endfacet
facet normal 0 0 1
  outer loop
    vertex 5.933259963989 2.722630023956 57
    vertex 5.93325996398946 1.277369976043818 57
    vertex 6.071680068969491 1.626960039138936 57
  endloop
endfacet
facet normal 0.809013 0.58779 0
  outer loop
    vertex 5.712250232696737 3.026819944381808 57
    vertex 5.933259963989315 2.722630023956228 57
    vertex 5.712250232696737 3.026819944381808 1
  endloop
endfacet
facet normal 0.809013 0.58779 0
  outer loop
    vertex 5.933259963989263 2.722630023956191 57
    vertex 5.933259963989263 2.722630023956191 1
    vertex 5.712250232696686 3.026819944381772 1
  endloop
endfacet
facet normal 0.929773 0.368133 0
  outer loop
    vertex 5.933259963988994 2.722630023955998 57
    vertex 6.071680068969501 2.373029947280803 57
    vertex 5.933259963988994 2.722630023955998 1
  endloop
endfacet
facet normal 0.929773 0.368133 0
  outer loop
    vertex 6.071680068970005 2.373029947281002 57
    vertex 6.071680068970005 2.373029947281002 1
    vertex 5.933259963989499 2.722630023956197 1
  endloop
endfacet
facet normal 0.992116 0.125321 0
  outer loop
    vertex 6.071680068969931 2.373029947280991 57
    vertex 6.118800163269201 2.000000000000025 57
    vertex 6.071680068969931 2.373029947280991 1
  endloop
endfacet
facet normal 0.992116 0.125321 0
  outer loop
    vertex 6.118800163268945 1.999999999999993 57
    vertex 6.118800163268945 1.999999999999993 1
    vertex 6.071680068969675 2.373029947280959 1
  endloop
endfacet
facet normal 0 0 1
  outer loop
    vertex 6.07168006897 2.373029947281 57
    vertex 6.07168006897 1.626960039139 57
    vertex 6.11880016326927 2.000000000000034 57
  endloop
endfacet
facet normal 0 0 1
  outer loop
    vertex 5.933259963989 2.722630023956 57
    vertex 6.07168006897 1.626960039139 57
    vertex 6.071680068969507 2.373029947280805 57
  endloop
endfacet
facet normal 0 0 1
  outer loop
    vertex 5.712250232697 3.026819944382 57
    vertex 5.933259963989 1.277369976044 57
    vertex 5.933259963989578 2.722630023956419 57
  endloop
endfacet
facet normal 0 0 1
  outer loop
    vertex 5.712250232697 3.026819944382 57
    vertex 5.712250232697 0.9731789827349999 57
    vertex 5.933259963989752 1.277369976044095 57
  endloop
endfacet
facet normal 0 0 1
  outer loop
    vertex 5.712250232697 3.026819944382 57
    vertex 5.422540187836137 3.266489982605166 57
    vertex 5.712250232697 0.9731789827349999 57
  endloop
endfacet
facet normal 0 0 1
  outer loop
    vertex 5.422540187836 3.266489982605 57
    vertex 5.422540187836 0.7335079908370001 57
    vertex 5.712250232697947 0.9731789827351194 57
  endloop
endfacet
facet normal 0 0 1
  outer loop
    vertex 5.422540187836 3.266489982605 57
    vertex 5.082330226898107 3.426579952240227 57
    vertex 5.422540187836 0.7335079908369999 57
  endloop
endfacet
facet normal 0 0 1
  outer loop
    vertex 5.082330226898 3.42657995224 57
    vertex 4.712989807129079 3.497040033340409 57
    vertex 5.082330226898 0.573414981365 57
  endloop
endfacet
facet normal 0 0 1
  outer loop
    vertex 4.712989807129 3.49704003334 57
    vertex 4.712989807129 0.5029590129849999 57
    vertex 5.08233022689943 0.5734149813651808 57
  endloop
endfacet
facet normal 0 0 1
  outer loop
    vertex 4.712989807129 3.49704003334 57
    vertex 4.337729930878016 3.47342991828875 57
    vertex 4.712989807129 0.5029590129849999 57
  endloop
endfacet
facet normal 0 0 1
  outer loop
    vertex 4.337729930878 3.473429918289 57
    vertex 4.337729930878 0.526567995548 57
    vertex 4.712989807128043 0.5029590129848787 57
  endloop
endfacet
facet normal 0 0 1
  outer loop
    vertex 4.337729930878 3.473429918289 57
    vertex 3.980129957199065 3.357239961623798 57
    vertex 4.337729930878 0.526567995548 57
  endloop
endfacet
facet normal 0 0 1
  outer loop
    vertex 3.980129957199 3.357239961624 57
    vertex 3.66266989707897 3.155770063400047 57
    vertex 3.980129957199 0.6427590250969999 57
  endloop
endfacet
facet normal 0 0 1
  outer loop
    vertex 3.662669897079 3.1557700634 57
    vertex 3.662669897079 0.8442299962040001 57
    vertex 3.98012995719884 0.6427590250969799 57
  endloop
endfacet
facet normal 0 0 1
  outer loop
    vertex 3.662669897079 3.1557700634 57
    vertex 3.405280113219817 2.881680011749171 57
    vertex 3.662669897079 0.8442299962040001 57
  endloop
endfacet
facet normal 0 0 1
  outer loop
    vertex 3.40528011322 2.881680011749 57
    vertex 3.40528011322 1.118319988251 57
    vertex 3.662669897078976 0.8442299962039965 57
  endloop
endfacet
facet normal 0 -0 1
  outer loop
    vertex 3.40528011322 1.118319988251 57
    vertex 3.405280113220148 2.881680011748919 57
    vertex 3.224139928818 2.552190065384 57
  endloop
endfacet
facet normal -0.876305 0.481757 0
  outer loop
    vertex 3.405280113219819 2.881680011749099 57
    vertex 3.405280113219819 2.881680011749099 1
    vertex 3.22413992881767 2.552190065384181 1
  endloop
endfacet
facet normal -0.876305 0.481757 0
  outer loop
    vertex 3.224139928818181 2.5521900653839 57
    vertex 3.405280113220329 2.881680011748819 57
    vertex 3.224139928818181 2.5521900653839 1
  endloop
endfacet
facet normal 0 -0 1
  outer loop
    vertex 3.224139928818 1.447810053825 57
    vertex 3.224139928818 2.552190065384 57
    vertex 3.130630016327084 2.187999963759978 57
  endloop
endfacet
facet normal 0 0 1
  outer loop
    vertex 3.224139928818039 1.44781005382501 57
    vertex 3.130630016327 2.18799996376 57
    vertex 3.130630016327 1.81200003624 57
  endloop
endfacet
facet normal -0.309014 0.951058 0
  outer loop
    vertex 4.337729930877995 3.473429918289018 1
    vertex 3.98012995719906 3.357239961623816 57
    vertex 4.337729930877995 3.473429918289018 57
  endloop
endfacet
facet normal -0.309014 0.951058 0
  outer loop
    vertex 4.33772993087794 3.473429918289184 1
    vertex 3.980129957199006 3.357239961623983 1
    vertex 3.980129957199006 3.357239961623983 57
  endloop
endfacet
facet normal 0.425778 0.904828 -0
  outer loop
    vertex 5.422540187835966 3.266489982604929 1
    vertex 5.082330226898073 3.426579952240156 57
    vertex 5.422540187835966 3.266489982604929 57
  endloop
endfacet
facet normal 0.425778 0.904828 0
  outer loop
    vertex 5.422540187835926 3.266489982604845 1
    vertex 5.082330226898033 3.426579952240072 1
    vertex 5.082330226898033 3.426579952240072 57
  endloop
endfacet
facet normal -0.968582 0.248694 0
  outer loop
    vertex 3.224139928818244 2.552190065383937 57
    vertex 3.224139928818244 2.552190065383937 1
    vertex 3.130630016327328 2.187999963759916 1
  endloop
endfacet
facet normal -0.968582 0.248694 0
  outer loop
    vertex 3.130630016326756 2.187999963760063 57
    vertex 3.224139928817672 2.552190065384084 57
    vertex 3.130630016326756 2.187999963760063 1
  endloop
endfacet
facet normal 0.992117 -0.125318 0
  outer loop
    vertex 6.11880016326894 2.000000000000008 57
    vertex 6.071680068969656 1.626960039139044 57
    vertex 6.11880016326894 2.000000000000008 1
  endloop
endfacet
facet normal 0.992117 -0.125318 0
  outer loop
    vertex 6.071680068970185 1.626960039138977 57
    vertex 6.071680068970185 1.626960039138977 1
    vertex 6.118800163269469 1.999999999999941 1
  endloop
endfacet
facet normal 0 0 -1
  outer loop
    vertex 6.07168006897 1.626960039139 1
    vertex 6.07168006896973 2.373029947280966 1
    vertex 6.118800163269285 1.999999999999964 1
  endloop
endfacet
facet normal 0 0 -1
  outer loop
    vertex 5.933259963989 1.277369976044 1
    vertex 6.07168006897 2.373029947281 1
    vertex 6.07168006896954 1.626960039139182 1
  endloop
endfacet
facet normal 0 0 -1
  outer loop
    vertex 5.933259963989 1.277369976044 1
    vertex 5.933259963989493 2.722630023956195 1
    vertex 6.071680068969064 2.373029947281118 1
  endloop
endfacet
facet normal 0 -0 -1
  outer loop
    vertex 5.933259963989 2.722630023956 1
    vertex 5.933259963989 1.277369976044 1
    vertex 5.712250232696612 0.9731789827352821 1
  endloop
endfacet
facet normal 0 0 -1
  outer loop
    vertex 5.712250232696423 3.026819944381581 1
    vertex 5.933259963990442 2.722630023955818 1
    vertex 5.712250232697 0.9731789827349999 1
  endloop
endfacet
facet normal 0 -0 -1
  outer loop
    vertex 5.712250232697 3.026819944382 1
    vertex 5.712250232697 0.973178982735 1
    vertex 5.422540187835742 0.7335079908373119 1
  endloop
endfacet
facet normal 0 0 -1
  outer loop
    vertex 5.422540187836 3.266489982605 1
    vertex 5.712250232697299 3.026819944381963 1
    vertex 5.422540187836 0.7335079908369999 1
  endloop
endfacet
facet normal 0 0 -1
  outer loop
    vertex 5.422540187836 3.266489982605 1
    vertex 5.422540187835952 0.7335079908371021 1
    vertex 5.082330226898 0.573414981365 1
  endloop
endfacet
facet normal 0 -0 -1
  outer loop
    vertex 5.082330226898107 3.426579952240227 1
    vertex 5.422540187835637 3.266489982605046 1
    vertex 5.082330226898 0.573414981365 1
  endloop
endfacet
facet normal 0 -0 -1
  outer loop
    vertex 5.082330226898 3.42657995224 1
    vertex 5.082330226898 0.573414981365 1
    vertex 4.712989807128967 0.5029590129851746 1
  endloop
endfacet
facet normal 0 0 -1
  outer loop
    vertex 4.712989807129 3.49704003334 1
    vertex 5.082330226897681 3.426579952240041 1
    vertex 4.712989807129 0.5029590129849999 1
  endloop
endfacet
facet normal 0 -0 -1
  outer loop
    vertex 4.712989807129 3.49704003334 1
    vertex 4.712989807129 0.5029590129850001 1
    vertex 4.337729930878001 0.526567995548012 1
  endloop
endfacet
facet normal 0 0 -1
  outer loop
    vertex 4.337729930878 3.473429918289 1
    vertex 4.712989807130168 3.497040033339853 1
    vertex 4.337729930878 0.526567995548 1
  endloop
endfacet
facet normal 0 -0 -1
  outer loop
    vertex 4.337729930878 3.473429918289 1
    vertex 4.337729930878089 0.5265679955482727 1
    vertex 3.980129957199 0.6427590250969999 1
  endloop
endfacet
facet normal 0 -0 -1
  outer loop
    vertex 3.980129957199065 3.357239961623798 1
    vertex 4.33772993087724 3.473429918289097 1
    vertex 3.980129957199 0.6427590250969999 1
  endloop
endfacet
facet normal 0 -0 -1
  outer loop
    vertex 3.980129957199 3.357239961624 1
    vertex 3.980129957199 0.6427590250969999 1
    vertex 3.662669897079323 0.8442299962045077 1
  endloop
endfacet
facet normal 0 0 -1
  outer loop
    vertex 3.662669897079 3.1557700634 1
    vertex 3.980129957198648 3.357239961624045 1
    vertex 3.662669897079 0.8442299962040001 1
  endloop
endfacet
facet normal 0 -0 -1
  outer loop
    vertex 3.662669897079 3.155770063399999 1
    vertex 3.662669897079 0.8442299962039999 1
    vertex 3.405280113219508 1.118319988250538 1
  endloop
endfacet
facet normal 0 0 -1
  outer loop
    vertex 3.662669897078812 3.155770063400023 1
    vertex 3.40528011322 1.118319988251 1
    vertex 3.405280113219817 2.881680011749171 1
  endloop
endfacet
facet normal 0 -0 -1
  outer loop
    vertex 3.40528011322 2.881680011749 1
    vertex 3.405280113220136 1.118319988251075 1
    vertex 3.224139928818 1.447810053825 1
  endloop
endfacet
facet normal 0 0 -1
  outer loop
    vertex 3.405280113220646 2.881680011748919 1
    vertex 3.224139928818 1.447810053825 1
    vertex 3.224139928817852 2.552190065384082 1
  endloop
endfacet
facet normal 0 -0 -1
  outer loop
    vertex 3.224139928818 2.552190065384 1
    vertex 3.224139928818 1.447810053825 1
    vertex 3.130630016326961 1.81200003623999 1
  endloop
endfacet
facet normal 0 0 -1
  outer loop
    vertex 3.224139928818 2.552190065384 1
    vertex 3.130630016327 1.81200003624 1
    vertex 3.130630016327084 2.187999963759979 1
  endloop
endfacet
facet normal -0.0627895 -0.998027 0
  outer loop
    vertex 4.337729930878028 0.5265679955484508 1
    vertex 4.712989807129028 0.5029590129854389 57
    vertex 4.337729930878028 0.5265679955484508 57
  endloop
endfacet
facet normal -0.0627895 -0.998027 0
  outer loop
    vertex 4.337729930878035 0.5265679955485572 1
    vertex 4.712989807129035 0.5029590129855451 1
    vertex 4.712989807129035 0.5029590129855451 57
  endloop
endfacet
facet normal -0.968582 -0.248694 -7.68101e-18
  outer loop
    vertex 3.13063001632678 1.812000036239943 57
    vertex 3.13063001632678 1.812000036239943 1
    vertex 3.224139928817819 1.447810053824953 1
  endloop
endfacet
facet normal -0.968582 -0.248694 -7.68101e-18
  outer loop
    vertex 3.22413992881822 1.447810053825057 57
    vertex 3.130630016327181 1.812000036240047 57
    vertex 3.224139928818221 1.447810053825057 1
  endloop
endfacet
facet normal -0.0627925 0.998027 0
  outer loop
    vertex 4.712989807128952 3.49704003334076 1
    vertex 4.337729930877968 3.47342991828951 57
    vertex 4.712989807128952 3.49704003334076 57
  endloop
endfacet
facet normal -0.0627925 0.998027 0
  outer loop
    vertex 4.712989807128966 3.49704003334055 1
    vertex 4.337729930877981 3.473429918289299 1
    vertex 4.337729930877981 3.473429918289299 57
  endloop
endfacet
facet normal -0.728966 -0.68455 -2.7143e-18
  outer loop
    vertex 3.405280113219849 1.118319988250859 57
    vertex 3.405280113219849 1.118319988250859 1
    vertex 3.662669897079341 0.8442299962043204 1
  endloop
endfacet
facet normal -0.728966 -0.68455 -3.06652e-18
  outer loop
    vertex 3.662669897079682 0.8442299962046405 57
    vertex 3.40528011322019 1.118319988251179 57
    vertex 3.662669897079682 0.8442299962046402 1
  endloop
endfacet
facet normal 0.187383 -0.982287 0
  outer loop
    vertex 4.712989807128924 0.5029590129854009 1
    vertex 5.082330226897957 0.5734149813652262 57
    vertex 4.712989807128924 0.5029590129854009 57
  endloop
endfacet
facet normal 0.187383 -0.982287 0
  outer loop
    vertex 4.71298980712886 0.5029590129857388 1
    vertex 5.082330226897892 0.573414981365564 1
    vertex 5.082330226897892 0.573414981365564 57
  endloop
endfacet
facet normal 0.637427 -0.770511 0
  outer loop
    vertex 5.422540187835601 0.7335079908374817 1
    vertex 5.71225023269686 0.97317898273517 57
    vertex 5.422540187835601 0.7335079908374817 57
  endloop
endfacet
facet normal 0.637427 -0.770511 0
  outer loop
    vertex 5.422540187835734 0.7335079908373211 1
    vertex 5.712250232696992 0.9731789827350092 1
    vertex 5.712250232696992 0.9731789827350092 57
  endloop
endfacet
facet normal 0.809014 -0.587789 2.33063e-18
  outer loop
    vertex 5.933259963988902 1.277369976044072 57
    vertex 5.712250232696514 0.9731789827353539 57
    vertex 5.933259963988902 1.277369976044072 1
  endloop
endfacet
facet normal 0.809014 -0.587789 -2.33063e-18
  outer loop
    vertex 5.712250232696443 0.9731789827354043 57
    vertex 5.712250232696443 0.9731789827354045 1
    vertex 5.933259963988832 1.277369976044122 1
  endloop
endfacet
facet normal -1 0 0
  outer loop
    vertex 3.130630016327 1.81200003624 1
    vertex 3.130630016327 2.18799996376 57
    vertex 3.130630016327 2.18799996376 1
  endloop
endfacet
facet normal -1 0 0
  outer loop
    vertex 3.130630016327 1.81200003624 1
    vertex 3.130630016327 1.81200003624 57
    vertex 3.130630016327 2.18799996376 57
  endloop
endfacet
facet normal -0.535834 0.844324 0
  outer loop
    vertex 3.980129957198822 3.35723996162428 1
    vertex 3.662669897078793 3.155770063400326 57
    vertex 3.980129957198822 3.35723996162428 57
  endloop
endfacet
facet normal -0.535834 0.844324 0
  outer loop
    vertex 3.980129957199042 3.357239961623934 1
    vertex 3.662669897079012 3.155770063399981 1
    vertex 3.662669897079012 3.155770063399981 57
  endloop
endfacet
facet normal 0.637426 0.770512 -0
  outer loop
    vertex 5.712250232696531 3.026819944381432 1
    vertex 5.422540187835668 3.266489982604598 57
    vertex 5.712250232696531 3.026819944381432 57
  endloop
endfacet
facet normal 0.637426 0.770512 0
  outer loop
    vertex 5.712250232696927 3.02681994438191 1
    vertex 5.422540187836064 3.266489982605077 1
    vertex 5.422540187836064 3.266489982605077 57
  endloop
endfacet
facet normal 0.187393 0.982285 -0
  outer loop
    vertex 5.08233022689804 3.426579952240211 1
    vertex 4.712989807129119 3.497040033340621 57
    vertex 5.08233022689804 3.426579952240211 57
  endloop
endfacet
facet normal 0.187393 0.982285 0
  outer loop
    vertex 5.082330226898065 3.426579952240344 1
    vertex 4.712989807129144 3.497040033340753 1
    vertex 4.712989807129144 3.497040033340753 57
  endloop
endfacet
facet normal -0.535836 -0.844322 0
  outer loop
    vertex 3.662669897079315 0.844229996204497 1
    vertex 3.980129957198993 0.6427590250969893 57
    vertex 3.662669897079315 0.844229996204497 57
  endloop
endfacet
facet normal -0.535836 -0.844322 0
  outer loop
    vertex 3.662669897079294 0.8442299962044633 1
    vertex 3.980129957198971 0.6427590250969555 1
    vertex 3.980129957198971 0.6427590250969555 57
  endloop
endfacet
endsolid Created by Gmsh
